<?xml version="1.0" encoding="UTF-8"?><svg id="b" xmlns="http://www.w3.org/2000/svg" width="130" height="54.73" viewBox="0 0 130 54.73"><path d="m100.29,18.39h3.23v7.98l3.59-3.65h3.91l-4.61,4.65,4.61,4.91h-3.91l-3.59-3.95v3.95h-3.23v-13.89Z"/><path d="m50.93,27.34c0-.94-.18-1.75-.54-2.43-.36-.69-.87-1.2-1.53-1.56-.65-.36-1.41-.54-2.28-.54s-1.59.18-2.25.56c-.65.37-1.14.9-1.49,1.6-.34.71-.52,1.55-.52,2.55,0,.93.16,1.77.48,2.52.33.77.82,1.37,1.48,1.82.68.43,1.5.66,2.48.66,1.26,0,2.2-.32,2.85-.98.51-.53.9-1.16,1.16-1.91l-.85-.48c-.2.78-.56,1.38-1.08,1.84-.54.45-1.24.69-2.1.69-1.14,0-2.01-.38-2.58-1.13-.54-.7-.82-1.6-.84-2.71h7.61v-.5Zm-7.61-.36c.03-.61.17-1.17.41-1.63.28-.56.67-.96,1.17-1.25.48-.28,1.03-.42,1.65-.42,1.03,0,1.84.32,2.46.93.55.59.87,1.38.9,2.37h-6.59Z"/><path d="m77.01,25.66c0,1.8-.34,3.2-1.02,4.19-.69.97-1.56,1.63-2.61,1.98-1.06.35-2.28.51-3.64.51h-4.91v-8.03h3.05v5.36h1.86c.97,0,1.75-.07,2.31-.21.55-.15,1.02-.51,1.38-1.1.36-.57.54-1.47.54-2.7s-.18-2.11-.55-2.68c-.36-.59-.83-.95-1.38-1.09-.57-.15-1.33-.23-2.29-.23h-1.83v-2.64h1.83c1.36,0,2.58.16,3.64.51,1.05.33,1.92.99,2.61,1.98.67.97,1.02,2.37,1.02,4.15Z"/><path d="m27.44,25.27c-.38-.75-.93-1.35-1.66-1.79-.73-.45-1.58-.67-2.55-.67s-1.82.22-2.55.67c-.74.44-1.29,1.04-1.68,1.79-.38.74-.57,1.53-.57,2.4s.19,1.65.57,2.4c.39.73.94,1.34,1.68,1.79.73.43,1.57.66,2.55.66s1.81-.23,2.55-.66c.73-.45,1.29-1.05,1.66-1.79.39-.75.59-1.54.59-2.4s-.19-1.66-.59-2.4Zm-.87,4.37c-.29.6-.72,1.09-1.29,1.47-.58.38-1.26.57-2.05.57s-1.48-.2-2.06-.57c-.57-.38-1-.87-1.29-1.47-.29-.62-.44-1.26-.44-1.96s.15-1.37.44-1.96c.28-.62.72-1.1,1.29-1.47.57-.38,1.26-.55,2.06-.55s1.47.18,2.05.55c.57.38,1,.86,1.29,1.47.28.6.44,1.26.44,1.96s-.15,1.35-.44,1.96Z"/><path d="m39.6,25.12c-.38-.73-.9-1.3-1.56-1.71-.67-.4-1.42-.6-2.27-.6-1.08,0-1.98.27-2.73.79-.69.5-1.17,1.16-1.47,2v-2.61h-1.02v12.78h1.02v-6c.18.51.45.95.78,1.34.41.45.89.81,1.47,1.05.57.24,1.23.36,1.95.36.84,0,1.59-.2,2.27-.6.66-.4,1.19-.97,1.56-1.69.39-.74.57-1.59.57-2.55s-.18-1.82-.57-2.55Zm-.95,4.74c-.33.6-.76,1.05-1.32,1.37-.56.3-1.17.45-1.83.45s-1.3-.16-1.89-.46c-.6-.32-1.06-.77-1.44-1.36-.36-.62-.54-1.34-.54-2.18s.18-1.57.54-2.18c.38-.61.84-1.07,1.44-1.36.59-.3,1.22-.45,1.89-.45s1.27.14,1.83.44c.56.29.99.73,1.32,1.33.33.6.5,1.35.5,2.22s-.16,1.61-.5,2.19Z"/><path d="m61.26,24.48c-.27-.54-.63-.96-1.11-1.25-.48-.29-1.06-.42-1.74-.42-1.06,0-1.95.27-2.64.82-.63.51-1.06,1.2-1.29,2.05v-2.7h-1.02v9.34h1.02v-4.21c0-.84.15-1.59.44-2.27.29-.68.7-1.2,1.26-1.59.54-.39,1.17-.59,1.89-.59.87,0,1.52.21,1.92.66.42.44.61,1.16.61,2.14v5.85h1.03v-5.89c0-.77-.12-1.43-.38-1.96Z"/><path d="m88.31,27.39c0-1-.19-1.86-.6-2.57-.41-.7-.99-1.26-1.75-1.63-.75-.38-1.67-.57-2.7-.57-.98,0-1.83.2-2.58.58-.75.39-1.34.96-1.77,1.71-.42.73-.63,1.61-.63,2.61s.21,1.85.61,2.6c.42.77,1.01,1.35,1.77,1.77.77.42,1.68.63,2.72.63,1.44,0,2.59-.32,3.45-.96.47-.36.84-.78,1.09-1.26l-2.37-1.32h-.08c-.09.43-.33.78-.7,1.02s-.84.36-1.41.36c-.69,0-1.23-.22-1.62-.66-.33-.38-.53-.88-.56-1.52h7.12v-.79Zm-7.17-.77c.03-.33.14-.63.27-.89.18-.33.44-.57.75-.75.33-.16.71-.25,1.17-.25.67,0,1.21.2,1.6.57.34.33.53.77.57,1.32h-4.37Z"/><path d="m98.04,27.79c-.51-.43-1.21-.76-2.11-.97l-2.2-.55c-.34-.09-.6-.2-.77-.35-.18-.15-.25-.31-.25-.49,0-.24.1-.42.33-.55.23-.12.57-.18,1.01-.18.58,0,1.02.1,1.3.33.29.23.44.57.44,1.02h2.88c0-1.11-.42-1.95-1.23-2.54s-1.95-.88-3.41-.88c-.89,0-1.64.11-2.27.33-.63.21-1.12.53-1.45.93-.33.41-.5.91-.5,1.52,0,.75.22,1.34.69,1.74.48.42,1.03.72,1.67.91l2.91.77c.3.09.51.21.64.34.14.12.21.29.21.48,0,.29-.11.5-.33.63-.23.14-.6.2-1.12.2-.7,0-1.23-.12-1.58-.39-.34-.25-.53-.66-.53-1.2h-2.86c0,.79.18,1.47.55,2.01.39.54.93.94,1.67,1.23.72.27,1.62.41,2.7.41.97,0,1.78-.11,2.43-.32.66-.21,1.14-.54,1.47-.96.33-.44.49-.96.49-1.58,0-.81-.25-1.42-.78-1.88Z"/><line x1="87.92" y1="30.3" x2="85.55" y2="28.98" fill="none"/></svg>