<svg id="Ebene_1" data-name="Ebene 1" xmlns="http://www.w3.org/2000/svg" viewBox="0 0 80 63"><defs><style>.cls-1{fill:#eeeff1;}.cls-2{fill:#8a9199;}.cls-3{fill:#3a424b;}</style></defs><circle class="cls-1" cx="40" cy="36.04" r="20.1"/><path class="cls-2" d="M45.32,43.28c-1.44,1.44-3.68,4-3.71,4l.25-3.53s.63-.52,2-1.93c2.33-2.33,1.78-7.07-1-9.89-2.38-2.38-9-8.61-18.18-18A41.56,41.56,0,0,0,36.53,36.84l-1.62,1.78a41.41,41.41,0,0,1-13-30.85c3,3.91,13,12.86,22.43,22.28C47.05,32.75,49.42,39.18,45.32,43.28Z"/><path class="cls-3" d="M42.82,34.35a7.55,7.55,0,0,1,.85,3.18C39,42.18,31.23,50.15,31.23,50.15V46.24C31.6,45.86,38.93,38.25,42.82,34.35Z"/><path class="cls-3" d="M55.83,32l-1.58,2.39a6.91,6.91,0,0,0-5.6-1,6.51,6.51,0,0,0-1.7,1,11.58,11.58,0,0,0-1.24-2.64,9.68,9.68,0,0,1,1.7-.93A9.69,9.69,0,0,1,55.83,32Z"/><path class="cls-3" d="M37.74,20.88,35,14.77c-.46,1.65-.6,2.38-.66,2.61l-2-2a35.14,35.14,0,0,1,.65-3.77c.26-1.18,1.35-4.76,1.35-4.76l9.21,19.61Z"/></svg>