<?xml version="1.0" encoding="utf-8"?>
<svg viewBox="108.89 40.845 73.078 28.258" width="73.078" height="28.258" xmlns="http://www.w3.org/2000/svg">
  <path d="M 43.224 51.259 Q 43.224 52.021 42.855 52.583 Q 42.486 53.146 41.78 53.451 Q 41.074 53.755 40.066 53.755 Q 39.621 53.755 39.196 53.697 Q 38.771 53.638 38.382 53.524 Q 37.992 53.409 37.641 53.24 L 37.641 51.552 Q 38.25 51.822 38.906 52.038 Q 39.562 52.255 40.207 52.255 Q 40.652 52.255 40.925 52.138 Q 41.197 52.021 41.32 51.816 Q 41.443 51.611 41.443 51.347 Q 41.443 51.025 41.226 50.796 Q 41.01 50.568 40.632 50.368 Q 40.254 50.169 39.779 49.941 Q 39.48 49.8 39.129 49.598 Q 38.777 49.396 38.461 49.103 Q 38.144 48.81 37.942 48.391 Q 37.74 47.972 37.74 47.386 Q 37.74 46.618 38.092 46.074 Q 38.443 45.529 39.097 45.239 Q 39.75 44.949 40.641 44.949 Q 41.308 44.949 41.915 45.104 Q 42.521 45.259 43.183 45.552 L 42.598 46.964 Q 42.006 46.724 41.537 46.592 Q 41.068 46.46 40.582 46.46 Q 40.242 46.46 40.002 46.569 Q 39.762 46.677 39.639 46.873 Q 39.516 47.07 39.516 47.327 Q 39.516 47.632 39.694 47.84 Q 39.873 48.048 40.233 48.242 Q 40.594 48.435 41.133 48.693 Q 41.789 49.003 42.255 49.34 Q 42.721 49.677 42.973 50.131 Q 43.224 50.585 43.224 51.259 Z" transform="matrix(1, 0, 0, 1, 74, 0)" style="fill: rgb(51, 51, 51); white-space: pre;"/>
  <path d="M 50.582 50.351 Q 50.582 51.171 50.363 51.804 Q 50.143 52.437 49.724 52.873 Q 49.305 53.31 48.716 53.533 Q 48.127 53.755 47.389 53.755 Q 46.697 53.755 46.12 53.533 Q 45.543 53.31 45.118 52.873 Q 44.694 52.437 44.462 51.804 Q 44.231 51.171 44.231 50.351 Q 44.231 49.261 44.617 48.505 Q 45.004 47.749 45.719 47.357 Q 46.434 46.964 47.424 46.964 Q 48.344 46.964 49.056 47.357 Q 49.768 47.749 50.175 48.505 Q 50.582 49.261 50.582 50.351 Z M 46.053 50.351 Q 46.053 50.995 46.194 51.435 Q 46.334 51.874 46.633 52.097 Q 46.932 52.32 47.412 52.32 Q 47.887 52.32 48.183 52.097 Q 48.479 51.874 48.616 51.435 Q 48.754 50.995 48.754 50.351 Q 48.754 49.701 48.616 49.27 Q 48.479 48.839 48.18 48.622 Q 47.881 48.406 47.401 48.406 Q 46.692 48.406 46.372 48.892 Q 46.053 49.378 46.053 50.351 Z" transform="matrix(1, 0, 0, 1, 74, 0)" style="fill: rgb(51, 51, 51); white-space: pre;"/>
  <path d="M 58.068 47.087 L 58.068 53.638 L 56.697 53.638 L 56.457 52.8 L 56.363 52.8 Q 56.152 53.134 55.836 53.345 Q 55.519 53.556 55.138 53.656 Q 54.757 53.755 54.347 53.755 Q 53.644 53.755 53.123 53.506 Q 52.601 53.257 52.311 52.73 Q 52.021 52.202 52.021 51.359 L 52.021 47.087 L 53.808 47.087 L 53.808 50.913 Q 53.808 51.617 54.06 51.974 Q 54.312 52.331 54.863 52.331 Q 55.408 52.331 55.718 52.082 Q 56.029 51.833 56.155 51.35 Q 56.281 50.867 56.281 50.169 L 56.281 47.087 Z" transform="matrix(1, 0, 0, 1, 74, 0)" style="fill: rgb(51, 51, 51); white-space: pre;"/>
  <path d="M 61.492 53.638 L 58.996 47.087 L 60.865 47.087 L 62.131 50.82 Q 62.236 51.148 62.298 51.511 Q 62.359 51.874 62.383 52.161 L 62.43 52.161 Q 62.447 51.851 62.514 51.499 Q 62.582 51.148 62.693 50.82 L 63.953 47.087 L 65.822 47.087 L 63.326 53.638 Z" transform="matrix(1, 0, 0, 1, 74, 0)" style="fill: rgb(51, 51, 51); white-space: pre;"/>
  <path d="M 69.462 46.964 Q 70.37 46.964 71.026 47.313 Q 71.682 47.661 72.04 48.324 Q 72.397 48.986 72.397 49.941 L 72.397 50.808 L 68.172 50.808 Q 68.202 51.564 68.627 51.994 Q 69.051 52.425 69.807 52.425 Q 70.434 52.425 70.956 52.296 Q 71.477 52.167 72.028 51.909 L 72.028 53.292 Q 71.542 53.533 71.011 53.644 Q 70.481 53.755 69.725 53.755 Q 68.741 53.755 67.982 53.392 Q 67.223 53.029 66.793 52.284 Q 66.362 51.54 66.362 50.409 Q 66.362 49.261 66.752 48.496 Q 67.141 47.732 67.838 47.348 Q 68.536 46.964 69.462 46.964 Z M 69.473 48.236 Q 68.952 48.236 68.609 48.57 Q 68.266 48.904 68.213 49.618 L 70.721 49.618 Q 70.715 49.22 70.578 48.909 Q 70.44 48.599 70.168 48.417 Q 69.895 48.236 69.473 48.236 Z" transform="matrix(1, 0, 0, 1, 74, 0)" style="fill: rgb(51, 51, 51); white-space: pre;"/>
  <path d="M 77.506 46.964 Q 77.641 46.964 77.82 46.979 Q 77.998 46.993 78.11 47.017 L 77.975 48.693 Q 77.887 48.663 77.726 48.649 Q 77.565 48.634 77.448 48.634 Q 77.102 48.634 76.777 48.722 Q 76.451 48.81 76.194 49.006 Q 75.936 49.202 75.786 49.522 Q 75.637 49.841 75.637 50.304 L 75.637 53.638 L 73.85 53.638 L 73.85 47.087 L 75.203 47.087 L 75.467 48.189 L 75.555 48.189 Q 75.748 47.855 76.038 47.576 Q 76.328 47.298 76.7 47.131 Q 77.073 46.964 77.506 46.964 Z" transform="matrix(1, 0, 0, 1, 74, 0)" style="fill: rgb(51, 51, 51); white-space: pre;"/>
  <path d="M 81.985 46.952 Q 83.303 46.952 84.006 47.527 Q 84.71 48.101 84.71 49.273 L 84.71 53.638 L 83.462 53.638 L 83.116 52.747 L 83.069 52.747 Q 82.788 53.099 82.495 53.322 Q 82.202 53.544 81.821 53.65 Q 81.44 53.755 80.895 53.755 Q 80.315 53.755 79.855 53.533 Q 79.395 53.31 79.131 52.85 Q 78.868 52.39 78.868 51.681 Q 78.868 50.638 79.6 50.143 Q 80.333 49.648 81.798 49.595 L 82.934 49.56 L 82.934 49.273 Q 82.934 48.757 82.665 48.517 Q 82.395 48.277 81.915 48.277 Q 81.44 48.277 80.983 48.411 Q 80.526 48.546 80.069 48.751 L 79.477 47.544 Q 79.999 47.269 80.646 47.111 Q 81.294 46.952 81.985 46.952 Z M 82.934 50.603 L 82.243 50.626 Q 81.376 50.65 81.039 50.937 Q 80.702 51.224 80.702 51.693 Q 80.702 52.103 80.942 52.276 Q 81.182 52.449 81.569 52.449 Q 82.143 52.449 82.539 52.109 Q 82.934 51.769 82.934 51.142 Z M 79.975 45.406 Q 79.975 44.99 80.213 44.802 Q 80.45 44.615 80.79 44.615 Q 81.124 44.615 81.37 44.802 Q 81.616 44.99 81.616 45.406 Q 81.616 45.798 81.37 45.992 Q 81.124 46.185 80.79 46.185 Q 80.45 46.185 80.213 45.992 Q 79.975 45.798 79.975 45.406 Z M 82.337 45.406 Q 82.337 44.99 82.574 44.802 Q 82.811 44.615 83.163 44.615 Q 83.497 44.615 83.746 44.802 Q 83.995 44.99 83.995 45.406 Q 83.995 45.798 83.746 45.992 Q 83.497 46.185 83.163 46.185 Q 82.811 46.185 82.574 45.992 Q 82.337 45.798 82.337 45.406 Z" transform="matrix(1, 0, 0, 1, 74, 0)" style="fill: rgb(51, 51, 51); white-space: pre;"/>
  <path d="M 90.262 46.964 Q 91.311 46.964 91.949 47.535 Q 92.588 48.107 92.588 49.367 L 92.588 53.638 L 90.801 53.638 L 90.801 49.812 Q 90.801 49.109 90.546 48.751 Q 90.291 48.394 89.746 48.394 Q 88.926 48.394 88.627 48.951 Q 88.328 49.507 88.328 50.556 L 88.328 53.638 L 86.541 53.638 L 86.541 47.087 L 87.906 47.087 L 88.146 47.925 L 88.246 47.925 Q 88.457 47.585 88.77 47.374 Q 89.084 47.163 89.468 47.064 Q 89.852 46.964 90.262 46.964 Z" transform="matrix(1, 0, 0, 1, 74, 0)" style="fill: rgb(51, 51, 51); white-space: pre;"/>
  <path d="M 97.132 46.964 Q 98.04 46.964 98.696 47.313 Q 99.353 47.661 99.71 48.324 Q 100.067 48.986 100.067 49.941 L 100.067 50.808 L 95.843 50.808 Q 95.872 51.564 96.297 51.994 Q 96.722 52.425 97.478 52.425 Q 98.105 52.425 98.626 52.296 Q 99.147 52.167 99.698 51.909 L 99.698 53.292 Q 99.212 53.533 98.682 53.644 Q 98.151 53.755 97.396 53.755 Q 96.411 53.755 95.652 53.392 Q 94.894 53.029 94.463 52.284 Q 94.032 51.54 94.032 50.409 Q 94.032 49.261 94.422 48.496 Q 94.812 47.732 95.509 47.348 Q 96.206 46.964 97.132 46.964 Z M 97.144 48.236 Q 96.622 48.236 96.279 48.57 Q 95.937 48.904 95.884 49.618 L 98.392 49.618 Q 98.386 49.22 98.248 48.909 Q 98.11 48.599 97.838 48.417 Q 97.565 48.236 97.144 48.236 Z" transform="matrix(1, 0, 0, 1, 74, 0)" style="fill: rgb(51, 51, 51); white-space: pre;"/>
  <path d="M 105.164 46.964 Q 105.299 46.964 105.477 46.979 Q 105.656 46.993 105.767 47.017 L 105.633 48.693 Q 105.545 48.663 105.384 48.649 Q 105.223 48.634 105.105 48.634 Q 104.76 48.634 104.434 48.722 Q 104.109 48.81 103.851 49.006 Q 103.594 49.202 103.444 49.522 Q 103.295 49.841 103.295 50.304 L 103.295 53.638 L 101.508 53.638 L 101.508 47.087 L 102.861 47.087 L 103.125 48.189 L 103.213 48.189 Q 103.406 47.855 103.696 47.576 Q 103.986 47.298 104.358 47.131 Q 104.73 46.964 105.164 46.964 Z" transform="matrix(1, 0, 0, 1, 74, 0)" style="fill: rgb(51, 51, 51); white-space: pre;"/>
  <path d="M 41.486 65.638 L 40.865 63.599 L 37.742 63.599 L 37.121 65.638 L 35.164 65.638 L 38.188 57.036 L 40.408 57.036 L 43.443 65.638 Z M 40.432 62.076 L 39.811 60.083 Q 39.752 59.884 39.655 59.571 Q 39.559 59.257 39.462 58.932 Q 39.365 58.607 39.307 58.367 Q 39.248 58.607 39.146 58.961 Q 39.043 59.316 38.949 59.632 Q 38.856 59.949 38.815 60.083 L 38.199 62.076 Z" transform="matrix(1, 0, 0, 1, 74, 0)" style="fill: rgb(51, 51, 51); white-space: pre;"/>
  <path d="M 48.023 58.964 Q 48.158 58.964 48.336 58.979 Q 48.515 58.993 48.626 59.017 L 48.492 60.693 Q 48.404 60.663 48.243 60.649 Q 48.081 60.634 47.964 60.634 Q 47.618 60.634 47.293 60.722 Q 46.968 60.81 46.71 61.006 Q 46.452 61.202 46.303 61.522 Q 46.154 61.841 46.154 62.304 L 46.154 65.638 L 44.367 65.638 L 44.367 59.087 L 45.72 59.087 L 45.984 60.189 L 46.072 60.189 Q 46.265 59.855 46.555 59.576 Q 46.845 59.298 47.217 59.131 Q 47.589 58.964 48.023 58.964 Z" transform="matrix(1, 0, 0, 1, 74, 0)" style="fill: rgb(51, 51, 51); white-space: pre;"/>
  <path d="M 51.605 56.521 L 51.605 58.642 Q 51.605 59.011 51.585 59.374 Q 51.564 59.738 51.535 59.937 L 51.605 59.937 Q 51.863 59.533 52.308 59.248 Q 52.754 58.964 53.463 58.964 Q 54.564 58.964 55.25 59.826 Q 55.935 60.687 55.935 62.351 Q 55.935 63.47 55.619 64.229 Q 55.302 64.988 54.734 65.371 Q 54.166 65.755 53.416 65.755 Q 52.695 65.755 52.279 65.497 Q 51.863 65.24 51.605 64.917 L 51.482 64.917 L 51.183 65.638 L 49.818 65.638 L 49.818 56.521 Z M 52.888 60.394 Q 52.42 60.394 52.144 60.587 Q 51.869 60.781 51.743 61.167 Q 51.617 61.554 51.605 62.146 L 51.605 62.339 Q 51.605 63.294 51.886 63.801 Q 52.168 64.308 52.912 64.308 Q 53.463 64.308 53.788 63.798 Q 54.113 63.288 54.113 62.327 Q 54.113 61.367 53.785 60.88 Q 53.457 60.394 52.888 60.394 Z" transform="matrix(1, 0, 0, 1, 74, 0)" style="fill: rgb(51, 51, 51); white-space: pre;"/>
  <path d="M 60.109 58.964 Q 61.017 58.964 61.673 59.313 Q 62.33 59.661 62.687 60.324 Q 63.044 60.986 63.044 61.941 L 63.044 62.808 L 58.82 62.808 Q 58.849 63.564 59.274 63.994 Q 59.699 64.425 60.455 64.425 Q 61.082 64.425 61.603 64.296 Q 62.125 64.167 62.675 63.909 L 62.675 65.292 Q 62.189 65.533 61.659 65.644 Q 61.128 65.755 60.373 65.755 Q 59.388 65.755 58.629 65.392 Q 57.871 65.029 57.44 64.284 Q 57.009 63.54 57.009 62.409 Q 57.009 61.261 57.399 60.496 Q 57.789 59.732 58.486 59.348 Q 59.183 58.964 60.109 58.964 Z M 60.121 60.236 Q 59.599 60.236 59.256 60.57 Q 58.914 60.904 58.861 61.618 L 61.369 61.618 Q 61.363 61.22 61.225 60.909 Q 61.087 60.599 60.815 60.417 Q 60.542 60.236 60.121 60.236 Z" transform="matrix(1, 0, 0, 1, 74, 0)" style="fill: rgb(51, 51, 51); white-space: pre;"/>
  <path d="M 66.284 59.087 L 66.284 65.638 L 64.497 65.638 L 64.497 59.087 Z M 65.394 56.521 Q 65.792 56.521 66.079 56.705 Q 66.366 56.89 66.366 57.394 Q 66.366 57.892 66.079 58.082 Q 65.792 58.273 65.394 58.273 Q 64.989 58.273 64.705 58.082 Q 64.421 57.892 64.421 57.394 Q 64.421 56.89 64.705 56.705 Q 64.989 56.521 65.394 56.521 Z" transform="matrix(1, 0, 0, 1, 74, 0)" style="fill: rgb(51, 51, 51); white-space: pre;"/>
  <path d="M 70.921 64.331 Q 71.214 64.331 71.492 64.273 Q 71.77 64.214 72.046 64.126 L 72.046 65.456 Q 71.758 65.585 71.334 65.67 Q 70.909 65.755 70.405 65.755 Q 69.819 65.755 69.353 65.565 Q 68.887 65.374 68.621 64.903 Q 68.354 64.431 68.354 63.587 L 68.354 60.429 L 67.499 60.429 L 67.499 59.673 L 68.483 59.076 L 68.999 57.693 L 70.141 57.693 L 70.141 59.087 L 71.975 59.087 L 71.975 60.429 L 70.141 60.429 L 70.141 63.587 Q 70.141 63.962 70.355 64.147 Q 70.569 64.331 70.921 64.331 Z" transform="matrix(1, 0, 0, 1, 74, 0)" style="fill: rgb(51, 51, 51); white-space: pre;"/>
  <path d="M 77.933 63.693 Q 77.933 64.361 77.619 64.821 Q 77.306 65.281 76.685 65.518 Q 76.063 65.755 75.138 65.755 Q 74.452 65.755 73.963 65.667 Q 73.474 65.579 72.976 65.374 L 72.976 63.898 Q 73.509 64.138 74.121 64.293 Q 74.733 64.449 75.196 64.449 Q 75.718 64.449 75.943 64.293 Q 76.169 64.138 76.169 63.886 Q 76.169 63.722 76.078 63.59 Q 75.987 63.458 75.688 63.291 Q 75.39 63.124 74.751 62.855 Q 74.136 62.597 73.74 62.333 Q 73.345 62.07 73.154 61.709 Q 72.964 61.349 72.964 60.792 Q 72.964 59.884 73.67 59.424 Q 74.376 58.964 75.56 58.964 Q 76.169 58.964 76.723 59.087 Q 77.276 59.21 77.862 59.48 L 77.323 60.769 Q 76.837 60.558 76.406 60.423 Q 75.976 60.288 75.53 60.288 Q 75.138 60.288 74.938 60.394 Q 74.739 60.499 74.739 60.716 Q 74.739 60.874 74.842 60.997 Q 74.944 61.12 75.24 61.27 Q 75.536 61.419 76.11 61.654 Q 76.667 61.882 77.077 62.131 Q 77.487 62.38 77.71 62.746 Q 77.933 63.113 77.933 63.693 Z" transform="matrix(1, 0, 0, 1, 74, 0)" style="fill: rgb(51, 51, 51); white-space: pre;"/>
  <path d="M 82.971 58.964 Q 84.078 58.964 84.761 59.826 Q 85.444 60.687 85.444 62.351 Q 85.444 63.464 85.121 64.223 Q 84.799 64.982 84.231 65.368 Q 83.662 65.755 82.924 65.755 Q 82.449 65.755 82.11 65.635 Q 81.77 65.515 81.53 65.325 Q 81.289 65.134 81.114 64.917 L 81.02 64.917 Q 81.067 65.152 81.09 65.398 Q 81.114 65.644 81.114 65.878 L 81.114 68.521 L 79.326 68.521 L 79.326 59.087 L 80.78 59.087 L 81.032 59.937 L 81.114 59.937 Q 81.289 59.673 81.541 59.451 Q 81.793 59.228 82.148 59.096 Q 82.502 58.964 82.971 58.964 Z M 82.397 60.394 Q 81.928 60.394 81.653 60.587 Q 81.377 60.781 81.251 61.167 Q 81.125 61.554 81.114 62.146 L 81.114 62.339 Q 81.114 62.972 81.234 63.411 Q 81.354 63.851 81.638 64.079 Q 81.922 64.308 82.42 64.308 Q 82.83 64.308 83.094 64.079 Q 83.358 63.851 83.49 63.409 Q 83.621 62.966 83.621 62.327 Q 83.621 61.367 83.323 60.88 Q 83.024 60.394 82.397 60.394 Z" transform="matrix(1, 0, 0, 1, 74, 0)" style="fill: rgb(51, 51, 51); white-space: pre;"/>
  <path d="M 88.703 65.638 L 86.916 65.638 L 86.916 56.521 L 88.703 56.521 Z" transform="matrix(1, 0, 0, 1, 74, 0)" style="fill: rgb(51, 51, 51); white-space: pre;"/>
  <path d="M 93.263 58.952 Q 94.582 58.952 95.285 59.527 Q 95.988 60.101 95.988 61.273 L 95.988 65.638 L 94.74 65.638 L 94.394 64.747 L 94.347 64.747 Q 94.066 65.099 93.773 65.322 Q 93.48 65.544 93.099 65.65 Q 92.718 65.755 92.173 65.755 Q 91.593 65.755 91.133 65.533 Q 90.673 65.31 90.41 64.85 Q 90.146 64.39 90.146 63.681 Q 90.146 62.638 90.878 62.143 Q 91.611 61.648 93.076 61.595 L 94.212 61.56 L 94.212 61.273 Q 94.212 60.757 93.943 60.517 Q 93.673 60.277 93.193 60.277 Q 92.718 60.277 92.261 60.411 Q 91.804 60.546 91.347 60.751 L 90.755 59.544 Q 91.277 59.269 91.924 59.111 Q 92.572 58.952 93.263 58.952 Z M 94.212 62.603 L 93.521 62.626 Q 92.654 62.65 92.317 62.937 Q 91.98 63.224 91.98 63.693 Q 91.98 64.103 92.22 64.276 Q 92.46 64.449 92.847 64.449 Q 93.421 64.449 93.817 64.109 Q 94.212 63.769 94.212 63.142 Z" transform="matrix(1, 0, 0, 1, 74, 0)" style="fill: rgb(51, 51, 51); white-space: pre;"/>
  <path d="M 100.579 64.331 Q 100.872 64.331 101.15 64.273 Q 101.429 64.214 101.704 64.126 L 101.704 65.456 Q 101.417 65.585 100.992 65.67 Q 100.567 65.755 100.063 65.755 Q 99.477 65.755 99.012 65.565 Q 98.546 65.374 98.279 64.903 Q 98.013 64.431 98.013 63.587 L 98.013 60.429 L 97.157 60.429 L 97.157 59.673 L 98.141 59.076 L 98.657 57.693 L 99.8 57.693 L 99.8 59.087 L 101.634 59.087 L 101.634 60.429 L 99.8 60.429 L 99.8 63.587 Q 99.8 63.962 100.013 64.147 Q 100.227 64.331 100.579 64.331 Z" transform="matrix(1, 0, 0, 1, 74, 0)" style="fill: rgb(51, 51, 51); white-space: pre;"/>
  <path d="M 107.592 65.638 L 102.418 65.638 L 102.418 64.583 L 105.453 60.452 L 102.6 60.452 L 102.6 59.087 L 107.486 59.087 L 107.486 60.247 L 104.533 64.273 L 107.592 64.273 Z" transform="matrix(1, 0, 0, 1, 74, 0)" style="fill: rgb(51, 51, 51); white-space: pre;"/>
</svg>